# xmcd CD database file
# Copyright (C) 1995 Ti Kan
#
# Track frame offsets:
#	150
#	18430
#	30135
#	45455
#	55275
#	71152
#	90712
#	112887
#	127580
#	138175
#	152420
#	164825
#	176675
#	191407
#	209232
#
# Disc length: 2877 seconds
#
# Revision: 1
# Processed by: cddbd v1.4PL0 Copyright (c) Steve Scherf et al.
# Submitted via: NotifyCDPlayer(CDDB) 1.50
#
DISCID=c40b3b0f
DTITLE=Movie Stars - Head On A Platter
DYEAR=1990
DGENRE=Alt-Country
TTITLE0=She's Barking
TTITLE1=I Wish You Knew
TTITLE2=It's All Right Now
TTITLE3=Polako Loco
TTITLE4=Smalltown Lust
TTITLE5=Fall To Pieces
TTITLE6=Hero
TTITLE7=Chords Of Fame
TTITLE8=Spinner
TTITLE9=Steve's Waltz
TTITLE10=Julie Ann
TTITLE11=Head On A Platter
TTITLE12=Cancer Song
TTITLE13=Blood Red Roses
TTITLE14=Psychic Buddy
EXTD=1990 Whirlaway Records\n2261 Market St., Ste 283\nSan Francisco, CA 941
EXTD=14\nProduced by Norman Kerner For Brilliant Productions\nThe Movie Star
EXTD=s:\nJill Olson\nMicahel Montalto\nBrad Williams\nDamon Carman\nSteve Co
EXTD=rnell\n
EXTT0=
EXTT1=
EXTT2=
EXTT3=
EXTT4=
EXTT5=
EXTT6=
EXTT7=
EXTT8=
EXTT9=
EXTT10=
EXTT11=
EXTT12=
EXTT13=
EXTT14=
PLAYORDER=
